<?xml version="1.0" encoding="UTF-8" standalone="no"?>
<svg
   xmlns:dc="http://purl.org/dc/elements/1.1/"
   xmlns:cc="http://creativecommons.org/ns#"
   xmlns:rdf="http://www.w3.org/1999/02/22-rdf-syntax-ns#"
   xmlns:svg="http://www.w3.org/2000/svg"
   xmlns="http://www.w3.org/2000/svg"
   xmlns:sodipodi="http://sodipodi.sourceforge.net/DTD/sodipodi-0.dtd"
   xmlns:inkscape="http://www.inkscape.org/namespaces/inkscape"
   version="1.1"
   id="svg2"
   xml:space="preserve"
   width="330.23593"
   height="101.21735"
   viewBox="0 0 330.23593 101.21735"
   sodipodi:docname="uibklogo.svg"
   inkscape:version="1.0.1 (3bc2e813f5, 2020-09-07)"><sodipodi:namedview
     pagecolor="#ffffff"
     bordercolor="#666666"
     borderopacity="1"
     objecttolerance="10"
     gridtolerance="10"
     guidetolerance="10"
     inkscape:pageopacity="0"
     inkscape:pageshadow="2"
     inkscape:window-width="1920"
     inkscape:window-height="1016"
     id="namedview21"
     showgrid="false"
     inkscape:zoom="1.995543"
     inkscape:cx="232.31479"
     inkscape:cy="124.39092"
     inkscape:window-x="1920"
     inkscape:window-y="27"
     inkscape:window-maximized="1"
     inkscape:current-layer="svg2" /><metadata
     id="metadata8"><rdf:RDF><cc:Work
         rdf:about=""><dc:format>image/svg+xml</dc:format><dc:type
           rdf:resource="http://purl.org/dc/dcmitype/StillImage" /><dc:title /></cc:Work></rdf:RDF></metadata><defs
     id="defs6" /><path
     d="M 10.429279,10.858483 V 49.127682 H 49.128745 V 10.429283 h -0.429734 -37.840532 -0.4292 z"
     style="fill:#000000;stroke:#000000;stroke-width:0.858557;stroke-linecap:butt;stroke-linejoin:miter;stroke-miterlimit:4;stroke-dasharray:none;stroke-opacity:1"
     id="path16" /><path
     d="M 10.429812,52.532882 V 90.788081 H 49.115145 V 52.103282 h -0.429067 -37.827066 -0.4292 z"
     style="fill:none;stroke:#000000;stroke-width:0.858557;stroke-linecap:butt;stroke-linejoin:miter;stroke-miterlimit:4;stroke-dasharray:none;stroke-opacity:1"
     id="path20" /><path
     d="m 274.14394,90.338081 h 4.84933 V 76.797548 l 11.764,13.540533 h 6.96533 l -13.77599,-14.6776 12.22933,-11.679599 h -6.60533 l -10.57734,10.697866 v -22.0792 h -4.84933 v 37.738533"
     style="fill:#000000;fill-opacity:1;fill-rule:nonzero;stroke:none;stroke-width:0.133333"
     id="path22" /><path
     d="m 168.10661,90.338081 h 4.64266 v -3.715067 h 0.104 c 1.28934,1.9604 4.28267,4.3344 8.97734,4.3344 7.94666,0 11.3,-7.017733 11.3,-14.241199 0,-7.068667 -3.71467,-13.312 -11.35067,-13.312 -4.59333,0 -7.224,1.805733 -8.72,4.231333 h -0.104 V 52.660482 h -4.84933 z m 19.864,-13.2604 c 0.104,4.1276 -2.064,9.957867 -7.27467,9.957867 -5.46933,0 -7.74,-5.4172 -7.74,-9.8032 0,-4.901467 2.528,-9.9068 7.792,-9.9068 5.26267,0 7.32667,5.005333 7.22267,9.752133"
     style="fill:#000000;fill-opacity:1;fill-rule:nonzero;stroke:none;stroke-width:0.133333"
     id="path24" /><path
     d="M 71.273011,90.307948 H 76.12301 V 63.993815 h -4.849999 v 26.314133"
     style="fill:#000000;fill-opacity:1;fill-rule:nonzero;stroke:none;stroke-width:0.133333"
     id="path26" /><path
     d="m 71.273011,57.339682 h 4.849999 v -4.85 h -4.849999 v 4.85"
     style="fill:#000000;fill-opacity:1;fill-rule:nonzero;stroke:none;stroke-width:0.133333"
     id="path28" /><path
     d="m 84.99181,90.338081 h 4.85 V 78.161015 c 0,-6.397867 2.476533,-10.835467 7.997333,-10.835467 4.231197,0.257867 5.572937,3.250533 5.572937,9.390667 v 13.621866 h 4.85 V 74.704215 c 0,-7.068667 -3.04427,-11.3 -9.855203,-11.3 -3.6636,0 -7.171867,1.805733 -8.616667,4.798533 h -0.1032 v -4.1792 h -4.6952 z m 31.52547,0 h 4.84933 V 78.161015 c 0,-6.397867 2.47733,-10.835467 7.99867,-10.835467 4.23066,0.257867 5.572,3.250533 5.572,9.390667 v 13.621866 h 4.85066 V 74.704215 c 0,-7.068667 -3.04533,-11.3 -9.856,-11.3 -3.66266,0 -7.172,1.805733 -8.616,4.798533 h -0.104 v -4.1792 h -4.69466 z m 29.30666,-0.825467 c 2.21867,1.1864 4.74667,1.4448 7.224,1.4448 4.69467,0 9.184,-2.580266 9.184,-8.204133 0,-8.410533 -11.40266,-6.862533 -11.40266,-12.228666 0,-2.166667 2.16666,-3.199067 4.64266,-3.199067 1.136,0 4.02534,0.670933 5.108,1.341733 l 0.41334,-4.230666 c -1.90934,-0.567733 -3.76667,-1.0324 -6.03734,-1.0324 -5.21066,0 -9.28666,2.631866 -9.28666,8.100533 0,7.378666 11.40266,6.9656 11.40266,11.764666 0,2.837467 -2.73466,3.766134 -4.95333,3.766134 -1.39333,0 -4.128,-0.6188 -6.03733,-1.857334 z m 53.81467,0.825467 h 4.85066 v -11.9708 c 0,-6.604133 2.83734,-10.731733 7.172,-10.731733 0.82534,0 1.80534,0.103067 2.68267,0.464 v -4.333866 c -1.032,-0.2068 -1.75467,-0.361467 -3.19867,-0.361467 -2.78666,0 -5.57333,1.960933 -6.86266,4.695333 h -0.10267 v -4.076 h -4.54133 z m 43.34133,-26.314533 h -4.85067 v 12.176533 c 0,6.3984 -2.476,10.835467 -7.99733,10.835467 -4.23067,-0.257867 -5.572,-3.250534 -5.572,-9.390667 V 64.023548 h -4.85067 v 15.633866 c 0,7.068667 3.044,11.3 9.856,11.3 3.66267,0 7.172,-1.806266 8.616,-4.798933 h 0.10267 v 4.1796 h 4.696 z m 25.38533,0.413067 c -1.39333,-0.567733 -3.92133,-1.0324 -5.88266,-1.0324 -8.048,0 -13.41467,5.778666 -13.41467,13.776666 0,7.5328 5.46933,13.776533 13.41467,13.776533 1.75466,0 4.07733,-0.1552 6.08933,-1.083866 l -0.36133,-4.3344 c -1.496,0.9808 -3.56,1.4964 -5.212,1.4964 -6.24267,0 -8.77067,-5.159467 -8.77067,-9.854667 0,-5.005333 3.044,-9.855333 8.46133,-9.855333 1.548,0 3.40534,0.361467 5.26267,1.135467 l 0.41333,-4.0244"
     style="fill:#000000;fill-opacity:1;fill-rule:nonzero;stroke:none;stroke-width:0.133333"
     id="path30" /><path
     d="m 271.08394,22.270349 h -6.96533 v -8.996266 l -4.84934,1.547333 v 7.448933 h -5.93466 v 3.921867 h 5.93466 v 15.375599 c 0,5.263067 3.096,7.6364 8.1,7.6364 1.548,0 3.044,-0.412933 4.128,-0.7224 v -4.1276 c -0.72266,0.464134 -1.80533,0.928667 -3.30266,0.928667 -2.21867,0 -4.076,-1.651067 -4.076,-4.695333 V 26.192216 h 6.96533 v -3.921867"
     style="fill:#000000;fill-opacity:1;fill-rule:nonzero;stroke:none;stroke-width:0.133333"
     id="path32" /><path
     d="m 319.82394,22.270349 h -6.96534 v -8.996266 l -4.85066,1.547333 v 7.448933 h -5.93334 v 3.921867 h 5.93334 v 15.375599 c 0,5.263067 3.096,7.6364 8.10133,7.6364 1.54667,0 3.044,-0.412933 4.12667,-0.7224 v -4.1276 c -0.72134,0.464134 -1.80534,0.928667 -3.30134,0.928667 -2.21866,0 -4.076,-1.651067 -4.076,-4.695333 V 26.192216 h 6.96534 v -3.921867"
     style="fill:#000000;fill-opacity:1;fill-rule:nonzero;stroke:none;stroke-width:0.133333"
     id="path34" /><path
     d="m 243.34927,15.711016 h 4.84934 v -4.850533 h -4.84934 v 4.850533"
     style="fill:#000000;fill-opacity:1;fill-rule:nonzero;stroke:none;stroke-width:0.133333"
     id="path36" /><path
     d="m 134.38928,15.711016 h 4.84933 v -4.850533 h -4.84933 v 4.850533"
     style="fill:#000000;fill-opacity:1;fill-rule:nonzero;stroke:none;stroke-width:0.133333"
     id="path38" /><path
     d="m 280.71594,18.136083 h 4.85067 v -4.850534 h -4.85067 v 4.850534"
     style="fill:#000000;fill-opacity:1;fill-rule:nonzero;stroke:none;stroke-width:0.133333"
     id="path40" /><path
     d="m 289.13194,18.136083 h 4.84933 v -4.850534 h -4.84933 v 4.850534"
     style="fill:#000000;fill-opacity:1;fill-rule:nonzero;stroke:none;stroke-width:0.133333"
     id="path42" /><path
     d="M 93.985543,22.370349 H 89.13501 v 12.1772 c 0,6.397866 -2.476533,10.835333 -7.997466,10.835333 -4.230667,-0.257733 -5.5724,-3.250533 -5.5724,-9.390666 V 22.370349 h -4.85 v 15.633867 c 0,7.068799 3.043867,11.299999 9.8548,11.299999 3.663466,0 7.171866,-1.805733 8.616666,-4.7984 h 0.1036 v 4.1792 h 4.695333 z m 8.254667,26.314666 h 4.85053 V 36.508482 c 0,-6.398533 2.47587,-10.835466 7.9972,-10.835466 4.23067,0.257866 5.572,3.250533 5.572,9.390666 v 13.621333 h 4.85067 V 33.051149 c 0,-7.0688 -3.044,-11.299466 -9.85467,-11.299466 -3.664,0 -7.172,1.805733 -8.61733,4.798399 h -0.10307 v -4.179733 h -4.69533 z m 32.14507,0 h 4.84933 V 22.370349 h -4.84933 z m 34.82799,-26.314666 h -4.85066 l -7.27467,21.464666 h -0.104 l -7.12,-21.464666 h -5.31466 l 9.44266,26.314666 h 5.77867 z m 24.86934,20.381333 c -1.18667,0.980133 -4.90134,2.6312 -8.1,2.6312 -4.59334,0 -8.66934,-3.5604 -8.66934,-8.771333 h 18.78134 c 0,-8.462 -2.83734,-14.859866 -11.60934,-14.859866 -7.42933,0 -12.33066,5.520799 -12.33066,13.311999 0,8.564533 4.28266,14.240533 13.62133,14.240533 4.33333,0 6.44933,-1.032266 8.30667,-1.702533 z m -16.76934,-9.752133 c 0.36134,-3.4052 2.32267,-7.326533 7.06934,-7.326533 4.17866,0 6.55333,3.302133 6.55333,7.326533 z m 25.28267,15.685466 h 4.85067 V 36.714616 c 0,-6.604667 2.83733,-10.732267 7.172,-10.732267 0.82533,0 1.80533,0.1032 2.68266,0.464667 v -4.3344 c -1.032,-0.206267 -1.75466,-0.360933 -3.19866,-0.360933 -2.78667,0 -5.572,1.9604 -6.86267,4.695333 h -0.10267 v -4.076667 h -4.54133 z m 17.852,-0.8256 c 2.21867,1.187067 4.748,1.4448 7.224,1.4448 4.696,0 9.184,-2.5796 9.184,-8.204133 0,-8.4104 -11.40267,-6.862 -11.40267,-12.228133 0,-2.1672 2.16667,-3.198933 4.644,-3.198933 1.13467,0 4.024,0.670266 5.108,1.3412 l 0.41334,-4.2308 c -1.90934,-0.567733 -3.76667,-1.031733 -6.03734,-1.031733 -5.212,0 -9.288,2.6312 -9.288,8.100533 0,7.378133 11.404,6.9656 11.404,11.763999 0,2.838 -2.73466,3.766667 -4.95333,3.766667 -1.39333,0 -4.128,-0.6192 -6.03733,-1.857733 z m 22.90933,0.8256 h 4.85067 V 22.370349 h -4.85067 z m 35.292,-20.329199 c 1.96,-1.651067 4.90134,-2.6828 7.636,-2.6828 4.85067,0 6.50134,2.321333 6.50134,6.862 -1.90934,-0.1032 -3.25067,-0.1032 -5.16,-0.1032 -5.004,0 -12.228,2.064133 -12.228,8.668266 0,5.7276 3.97333,8.204133 9.648,8.204133 4.43733,0 7.01733,-2.424933 8.15333,-4.0244 h 0.10267 v 3.4052 h 4.54133 c -0.104,-0.774 -0.20667,-2.1672 -0.20667,-5.159866 V 32.638082 c 0,-7.171866 -3.044,-10.886399 -10.57733,-10.886399 -3.35467,0 -6.244,1.031733 -8.66933,2.476533 z m 14.13734,10.113066 c 0,3.921333 -2.528,6.914 -7.32667,6.914 -2.21867,0 -4.90133,-1.496267 -4.90133,-4.2828 0,-4.643733 6.50133,-5.056266 9.132,-5.056266 1.032,0 2.064,0.1032 3.096,0.1032 v 2.321866"
     style="fill:#000000;fill-opacity:1;fill-rule:nonzero;stroke:none;stroke-width:0.133333"
     id="path44" /></svg>
